<svg width="238" height="54" viewBox="0 0 238 54" fill="none" xmlns="http://www.w3.org/2000/svg">
<path fill-rule="evenodd" clip-rule="evenodd" d="M9.84906 32.3671L7.52337 36.7375L7.52297 51.4193H-0.000944717L0.0003514 3.61813H7.52427L7.5237 24.4458L17.3738 3.61813H24.8977L14.432 24.9238L24.8964 51.4193H17.1673L9.84906 32.3671ZM35.5185 40.425C35.5185 42.155 35.8718 43.3727 36.5786 44.0784C37.2854 44.784 38.2316 45.1368 39.4172 45.1368C40.6027 45.1368 41.5489 44.784 42.2557 44.0784C42.9626 43.3727 43.316 42.155 43.316 40.425L43.3167 14.6124C43.3168 12.8824 42.9634 11.6646 42.2566 10.959C41.5499 10.2533 40.6037 9.90053 39.4181 9.90053C38.2325 9.90053 37.2863 10.2533 36.5795 10.959C35.8727 11.6646 35.5193 12.8824 35.5192 14.6124L35.5185 40.425ZM27.9947 15.0905C27.9948 11.2208 28.9753 8.25037 30.9361 6.17898C32.897 4.10758 35.7241 3.0719 39.4177 3.0719C43.1113 3.0719 45.9384 4.10758 47.8991 6.17898C49.8599 8.25037 50.8402 11.2208 50.8401 15.0905L50.8394 39.9471C50.8393 43.8167 49.8588 46.7872 47.898 48.8586C45.9371 50.93 43.11 51.9657 39.4164 51.9657C35.7228 51.9657 32.8957 50.93 30.935 48.8586C28.9742 46.7872 27.9939 43.8167 27.9941 39.9471L27.9947 15.0905ZM63.1716 16.7977L63.1707 51.4195H56.3992L56.4005 3.61827H65.8396L73.5679 32.2307L73.5687 3.61827H80.2718L80.2705 51.4195H72.5414L63.1716 16.7977ZM85.4896 15.0905C85.4897 11.2209 86.4132 8.25039 88.26 6.179C90.1068 4.1076 92.877 3.07192 96.5706 3.07192C100.264 3.07192 103.034 4.1076 104.881 6.179C106.728 8.25039 107.651 11.2209 107.651 15.0905L107.651 16.5928H100.537L100.537 14.6125C100.537 12.8825 100.207 11.6648 99.5457 10.9591C98.8846 10.2535 97.9612 9.90066 96.7756 9.90066C95.59 9.90066 94.6666 10.2535 94.0054 10.9591C93.3442 11.6648 93.0136 12.8825 93.0135 14.6125C93.0135 16.2514 93.3782 17.6968 94.1078 18.9487C94.8373 20.2007 95.7493 21.3843 96.8437 22.4997C97.938 23.6151 99.1122 24.7304 100.366 25.8458C101.62 26.9611 102.794 28.1789 103.889 29.4991C104.983 30.8194 105.895 32.3217 106.624 34.0061C107.354 35.6906 107.719 37.6709 107.719 39.9471C107.719 43.8168 106.772 46.7872 104.88 48.8586C102.987 50.93 100.194 51.9657 96.5009 51.9657C92.8073 51.9657 90.0144 50.93 88.122 48.8586C86.2297 46.7872 85.2836 43.8168 85.2837 39.9471L85.2838 37.0108H92.3973L92.3972 40.4251C92.3972 42.1551 92.7505 43.3615 93.4573 44.0444C94.1641 44.7272 95.1103 45.0687 96.2959 45.0687C97.4814 45.0687 98.4276 44.7272 99.1344 44.0444C99.8413 43.3615 100.195 42.1551 100.195 40.4251C100.195 38.7862 99.83 37.3408 99.1005 36.0889C98.3709 34.8369 97.459 33.6533 96.3646 32.5379C95.2702 31.4226 94.0961 30.3072 92.8421 29.1919C91.5882 28.0765 90.414 26.8587 89.3197 25.5385C88.2253 24.2183 87.3134 22.7159 86.5838 21.0315C85.8543 19.3471 85.4895 17.3668 85.4896 15.0905ZM110.612 3.61811H133.868L133.867 10.4468H126.001L126 51.4193H118.476L118.478 10.4468H110.612L110.612 3.61811ZM153.653 51.4193C153.562 51.1006 153.47 50.8047 153.379 50.5315C153.288 50.2584 153.208 49.917 153.14 49.5072C153.071 49.0975 153.026 48.574 153.003 47.9366C152.98 47.2993 152.969 46.5026 152.969 45.5466L152.969 38.0349C152.969 35.8042 152.582 34.2336 151.806 33.3231C151.031 32.4126 149.777 31.9574 148.045 31.9574H145.445L145.445 51.4193H137.921L137.922 3.61809H149.276C153.198 3.61809 156.037 4.52858 157.792 6.34958C159.548 8.17059 160.425 10.9248 160.425 14.6124L160.425 18.3682C160.425 23.2849 158.783 26.5171 155.5 28.065C157.415 28.8389 158.726 30.1022 159.433 31.8549C160.14 33.6077 160.493 35.7359 160.493 38.2398L160.493 45.6148C160.493 46.7985 160.538 47.8342 160.63 48.7219C160.721 49.6097 160.949 50.5088 161.313 51.4193H153.653ZM145.447 10.447L145.446 25.1288H148.387C149.801 25.1288 150.907 24.7646 151.705 24.0362C152.503 23.3078 152.902 21.9875 152.902 20.0755L152.902 15.3637C152.902 13.6337 152.594 12.3818 151.979 11.6079C151.363 10.8339 150.394 10.447 149.072 10.447H145.447ZM173.373 3.61825L173.372 40.4935C173.372 42.2234 173.725 43.4298 174.432 44.1127C175.139 44.7956 176.085 45.137 177.27 45.137C178.456 45.137 179.402 44.7956 180.109 44.1127C180.816 43.4298 181.169 42.2234 181.169 40.4935L181.17 3.61825H188.284L188.283 40.0154C188.283 43.8851 187.336 46.8555 185.444 48.9269C183.552 50.9983 180.759 52.034 177.065 52.034C173.371 52.034 170.579 50.9983 168.686 48.9269C166.794 46.8555 165.848 43.8851 165.848 40.0154L165.849 3.61825H173.373ZM214.744 3.61826H238L238 10.447H230.134L230.133 51.4195H222.609L222.61 10.447H214.744L214.744 3.61826Z" fill="#1A1A1A"/>
<path fill-rule="evenodd" clip-rule="evenodd" d="M188.953 27L208.497 0L208.495 54L188.953 27Z" fill="#1A1A1A"/>
</svg>
