<svg width="60" height="89" viewBox="0 0 60 89" fill="none" xmlns="http://www.w3.org/2000/svg">
<g clip-path="url(#clip0_1_104)">
<path d="M15.3433 88.4078C23.3818 88.4078 29.9019 81.842 29.9019 73.7472V59.0865H15.3433C7.30478 59.0865 0.784668 65.6523 0.784668 73.7472C0.784668 81.842 7.30478 88.4078 15.3433 88.4078Z" fill="#0ACF83"/>
<path d="M0.784668 44.408C0.784668 36.3132 7.30478 29.7474 15.3433 29.7474H29.9019V59.0866H15.3433C7.30478 59.0687 0.784668 52.5029 0.784668 44.408Z" fill="#A259FF"/>
<path d="M0.784668 15.0688C0.784668 6.974 7.30478 0.408203 15.3433 0.408203H29.9019V29.7474H15.3433C7.30478 29.7474 0.784668 23.1636 0.784668 15.0688Z" fill="#F24E1E"/>
<path d="M29.9198 0.408203H44.4784C52.5169 0.408203 59.037 6.974 59.037 15.0688C59.037 23.1636 52.5169 29.7294 44.4784 29.7294H29.9198V0.408203Z" fill="#FF7262"/>
<path d="M59.037 44.408C59.037 52.5029 52.5169 59.0687 44.4784 59.0687C36.4399 59.0687 29.9198 52.5029 29.9198 44.408C29.9198 36.3132 36.4399 29.7474 44.4784 29.7474C52.5169 29.7474 59.037 36.3132 59.037 44.408Z" fill="#1ABCFE"/>
</g>
<defs>
<clipPath id="clip0_1_104">
<rect width="58.2523" height="87.9996" fill="white" transform="translate(0.784668 0.408203)"/>
</clipPath>
</defs>
</svg>
