<svg width="90" height="88" viewBox="0 0 90 88" fill="none" xmlns="http://www.w3.org/2000/svg">
<path d="M3.94153 3.74158H85.702V83.8444H3.94153V3.74158Z" fill="url(#paint0_radial_1_93)"/>
<path d="M3.94153 3.74161H85.702V83.8445H3.94153V3.74161ZM0.225952 87.5861H89.4355V0H0.225952V87.5861ZM63.3371 42.219C65.2307 42.219 65.9095 42.219 66.0881 42.1471C66.0881 41.8773 66.1596 41.6974 66.1596 41.5175C66.1596 39.5028 65.1949 35.7612 61.3365 35.7612C57.7638 35.7612 56.2454 38.9091 55.8703 42.237H63.3371V42.219ZM55.7988 47.3458C55.8703 52.4005 58.2461 55.8004 63.9088 55.8004C66.106 55.8004 67.9995 55.4946 69.9644 54.6491C70.2324 54.5412 70.411 54.5771 70.411 54.9189V59.5959C70.411 59.9737 70.3038 60.1536 70.0359 60.3515C68.0709 61.3228 65.6058 61.7725 62.569 61.7725C52.762 61.7725 49.0822 54.4692 49.0822 46.3564C49.0822 37.524 53.6195 30.2927 61.6044 30.2927C69.7144 30.2927 72.5368 37.1463 72.5368 42.7227C72.5368 44.5216 72.4296 45.9786 72.2331 46.6982C72.1616 47.004 72.0545 47.1119 71.7508 47.1839C71.0005 47.2918 68.8212 47.4537 65.5522 47.4537H55.8167V47.3458H55.7988ZM35.8633 43.5322C34.8272 39.3769 32.2907 30.3286 31.3618 25.9394H31.2903C30.5043 30.3106 28.4679 37.7219 26.9495 43.5322H35.8633ZM25.4311 49.5943L22.5015 60.7832C22.4301 61.089 22.3229 61.1969 21.9478 61.1969H16.4637C16.0886 61.1969 16.0171 61.089 16.0886 60.6393L26.6458 23.475C26.8245 22.8094 26.9495 22.2698 27.021 20.399C27.021 20.1291 27.1281 20.0212 27.3246 20.0212H35.1309C35.3989 20.0212 35.5061 20.0932 35.5775 20.399L47.3852 60.7112C47.4566 61.017 47.3852 61.1969 47.0815 61.1969H40.9544C40.6507 61.1969 40.4721 61.089 40.4006 60.8192L37.346 49.5943H25.4311Z" fill="#D8A1FF"/>
<defs>
<radialGradient id="paint0_radial_1_93" cx="0" cy="0" r="1" gradientUnits="userSpaceOnUse" gradientTransform="translate(30.894 21.7005) scale(62.1407 60.585)">
<stop stop-color="#442F55" stop-opacity="0.98"/>
<stop offset="1" stop-color="#12002C"/>
</radialGradient>
</defs>
</svg>
