<svg width="90" height="88" viewBox="0 0 90 88" fill="none" xmlns="http://www.w3.org/2000/svg">
<path d="M4.29535 4.14978H86.0558V84.2526H4.29535V4.14978Z" fill="url(#paint0_radial_1_80)"/>
<path d="M4.29535 4.14981H86.0558V84.2527H4.29535V4.14981ZM0.579773 87.9943H89.7892V0.408203H0.579773V87.9943ZM59.0107 31.6363C59.0107 31.3305 59.1179 31.1865 59.4573 31.1865H65.2986C65.6023 31.1865 65.7452 31.2945 65.7452 31.6363V61.1734C65.7452 61.4792 65.6737 61.6231 65.2986 61.6231H59.5288C59.1536 61.6231 59.0465 61.4432 59.0465 61.1374V31.6363H59.0107ZM58.5999 23.1277C58.5999 20.7352 60.279 19.3141 62.3869 19.3141C64.6555 19.3141 66.1739 20.8432 66.1739 23.1277C66.1739 25.5921 64.5841 26.9413 62.3154 26.9413C60.1718 26.9592 58.5999 25.6101 58.5999 23.1277ZM41.8798 43.9404C40.8437 39.7851 38.3786 30.7368 37.4497 26.3476H37.3782C36.5922 30.7188 34.6273 38.1301 33.0732 43.9404H41.8798ZM31.5548 50.0025L28.6252 61.2274C28.5537 61.5332 28.4466 61.6051 28.0714 61.6051H22.6053C22.2301 61.6051 22.1587 61.4972 22.2301 61.0475L32.7874 23.8472C32.966 23.1817 33.091 22.57 33.1625 20.7352C33.1625 20.4654 33.2697 20.3575 33.4662 20.3575H41.2724C41.5404 20.3575 41.6476 20.4294 41.719 20.7352L53.5445 61.1194C53.616 61.4252 53.5445 61.6051 53.2409 61.6051H47.078C46.7743 61.6051 46.5957 61.5332 46.5243 61.2633L43.4696 50.0025H31.5548Z" fill="#FF7F18"/>
<defs>
<radialGradient id="paint0_radial_1_80" cx="0" cy="0" r="1" gradientUnits="userSpaceOnUse" gradientTransform="translate(31.2499 22.1246) scale(62.1406 60.585)">
<stop stop-color="#423325" stop-opacity="0.98"/>
<stop offset="1" stop-color="#1C0A00"/>
</radialGradient>
</defs>
</svg>
