<svg width="51" height="50" viewBox="0 0 51 50" fill="none" xmlns="http://www.w3.org/2000/svg">
<path d="M25.5023 18.8467C22.0963 18.8467 19.349 21.594 19.349 25C19.349 28.406 22.0963 31.1533 25.5023 31.1533C28.9083 31.1533 31.6556 28.406 31.6556 25C31.6556 21.594 28.9083 18.8467 25.5023 18.8467ZM25.5023 29.0004C23.3013 29.0004 21.5019 27.2064 21.5019 25C21.5019 22.7936 23.2959 20.9996 25.5023 20.9996C27.7087 20.9996 29.5028 22.7936 29.5028 25C29.5028 27.2064 27.7034 29.0004 25.5023 29.0004V29.0004ZM33.3426 18.595C33.3426 19.3929 32.6999 20.0302 31.9073 20.0302C31.1094 20.0302 30.4721 19.3876 30.4721 18.595C30.4721 17.8024 31.1147 17.1598 31.9073 17.1598C32.6999 17.1598 33.3426 17.8024 33.3426 18.595ZM37.418 20.0517C37.3269 18.1291 36.8878 16.4261 35.4794 15.023C34.0762 13.6199 32.3732 13.1807 30.4507 13.0843C28.4692 12.9719 22.5301 12.9719 20.5486 13.0843C18.6314 13.1754 16.9284 13.6145 15.52 15.0176C14.1115 16.4207 13.6777 18.1237 13.5813 20.0463C13.4689 22.0278 13.4689 27.9669 13.5813 29.9483C13.6724 31.8709 14.1115 33.5739 15.52 34.977C16.9284 36.3801 18.6261 36.8193 20.5486 36.9157C22.5301 37.0281 28.4692 37.0281 30.4507 36.9157C32.3732 36.8246 34.0762 36.3855 35.4794 34.977C36.8825 33.5739 37.3216 31.8709 37.418 29.9483C37.5305 27.9669 37.5305 22.0331 37.418 20.0517V20.0517ZM34.8581 32.0744C34.4404 33.1241 33.6318 33.9327 32.5768 34.3558C30.9969 34.9824 27.2482 34.8378 25.5023 34.8378C23.7565 34.8378 20.0024 34.977 18.4279 34.3558C17.3783 33.9381 16.5696 33.1294 16.1465 32.0744C15.52 30.4946 15.6646 26.7458 15.6646 25C15.6646 23.2542 15.5253 19.5001 16.1465 17.9256C16.5643 16.8759 17.3729 16.0673 18.4279 15.6442C20.0077 15.0176 23.7565 15.1622 25.5023 15.1622C27.2482 15.1622 31.0023 15.023 32.5768 15.6442C33.6264 16.0619 34.4351 16.8706 34.8581 17.9256C35.4847 19.5054 35.3401 23.2542 35.3401 25C35.3401 26.7458 35.4847 30.4999 34.8581 32.0744Z" fill="#565656"/>
<rect x="0.999664" y="0.5" width="49" height="49" stroke="#565656"/>
</svg>
