<svg width="51" height="50" viewBox="0 0 51 50" fill="none" xmlns="http://www.w3.org/2000/svg">
<path d="M18.872 37H13.8961V20.9764H18.872V37ZM16.3814 18.7907C14.7903 18.7907 13.4997 17.4728 13.4997 15.8817C13.4997 15.1174 13.8033 14.3844 14.3437 13.844C14.8841 13.3036 15.6171 13 16.3814 13C17.1456 13 17.8786 13.3036 18.419 13.844C18.9594 14.3844 19.263 15.1174 19.263 15.8817C19.263 17.4728 17.9719 18.7907 16.3814 18.7907ZM37.4949 37H32.5298V29.1998C32.5298 27.3409 32.4923 24.9569 29.9427 24.9569C27.3557 24.9569 26.9593 26.9766 26.9593 29.0659V37H21.9888V20.9764H26.7611V23.1622H26.8307C27.495 21.9032 29.1177 20.5746 31.5387 20.5746C36.5745 20.5746 37.5002 23.8908 37.5002 28.198V37H37.4949Z" fill="#565656"/>
<rect x="0.999634" y="0.5" width="49.0007" height="49" stroke="#565656"/>
</svg>
