<svg width="51" height="50" viewBox="0 0 51 50" fill="none" xmlns="http://www.w3.org/2000/svg">
<rect x="0.999634" y="0.5" width="49" height="49" fill="#565656"/>
<path d="M37.2372 18.9812C37.2559 19.2437 37.2559 19.5063 37.2559 19.7687C37.2559 27.775 31.1622 37 20.0247 37C16.5934 37 13.4059 36.0062 10.7247 34.2813C11.2122 34.3375 11.6809 34.3563 12.1872 34.3563C15.0184 34.3563 17.6247 33.4 19.7059 31.7688C17.0434 31.7125 14.8122 29.9688 14.0434 27.5687C14.4184 27.625 14.7934 27.6625 15.1872 27.6625C15.7309 27.6625 16.2747 27.5874 16.7809 27.4563C14.0059 26.8937 11.9246 24.4562 11.9246 21.5125V21.4375C12.7308 21.8875 13.6684 22.1688 14.6621 22.2062C13.0308 21.1187 11.9621 19.2625 11.9621 17.1625C11.9621 16.0375 12.2621 15.0062 12.7871 14.1062C15.7684 17.7812 20.2497 20.1812 25.2746 20.4437C25.1809 19.9937 25.1246 19.525 25.1246 19.0563C25.1246 15.7187 27.8246 13 31.1809 13C32.9246 13 34.4996 13.7312 35.6059 14.9125C36.9746 14.65 38.2871 14.1437 39.4496 13.45C38.9996 14.8563 38.0433 16.0375 36.7871 16.7875C38.0059 16.6563 39.1871 16.3187 40.2746 15.85C39.4497 17.05 38.4184 18.1187 37.2372 18.9812V18.9812Z" fill="white"/>
<rect x="0.999634" y="0.5" width="49" height="49" stroke="#565656"/>
</svg>
