<svg width="51" height="50" fill="none" xmlns="http://www.w3.org/2000/svg"><path fill="#565656" d="M1 .5h49v49H1z"/><path d="M37.237 18.981c.019.263.019.525.019.788C37.256 27.775 31.162 37 20.025 37c-3.432 0-6.62-.994-9.3-2.719.487.056.956.075 1.462.075a12.13 12.13 0 007.519-2.587 6.067 6.067 0 01-5.663-4.2c.375.056.75.094 1.144.094a6.41 6.41 0 001.594-.207 6.057 6.057 0 01-4.856-5.944v-.075c.806.45 1.743.732 2.737.77a6.052 6.052 0 01-2.7-5.044c0-1.125.3-2.157.825-3.057a17.215 17.215 0 0012.488 6.338 6.839 6.839 0 01-.15-1.388c0-3.337 2.7-6.056 6.056-6.056 1.744 0 3.319.731 4.425 1.912a11.924 11.924 0 003.844-1.462 6.04 6.04 0 01-2.663 3.338c1.219-.132 2.4-.47 3.488-.938a13.018 13.018 0 01-3.038 3.131z" fill="#fff"/><path stroke="#565656" d="M1 .5h49v49H1z"/></svg>